<svg xmlns="http://www.w3.org/2000/svg" xmlns:xlink="http://www.w3.org/1999/xlink" width="50" zoomAndPan="magnify" viewBox="0 0 37.5 37.499999" height="50" preserveAspectRatio="xMidYMid meet" version="1.0"><defs><g/></defs><g fill="#ffffff" fill-opacity="1"><g transform="translate(12.342194, 32.696049)"><g><path d="M 13.269531 -0.316406 C 12.054688 -3.015625 10.742188 -5.6875 9.527344 -8.433594 C 11.472656 -9.140625 13.101562 -10.695312 13.101562 -13.660156 C 13.101562 -19.394531 7.632812 -19.445312 6.539062 -19.445312 L 0.242188 -19.445312 C 0.121094 -19.445312 0 -19.324219 0 -19.226562 L 0 -15.921875 L 6.539062 -15.921875 C 7.121094 -15.921875 9.40625 -15.796875 9.40625 -13.660156 C 9.40625 -11.519531 7.339844 -11.421875 6.539062 -11.421875 L 0 -11.421875 L 0 -0.21875 C 0 -0.121094 0.121094 0 0.242188 0 L 3.425781 0 C 3.574219 0 3.695312 -0.121094 3.695312 -0.21875 L 3.695312 -7.851562 L 5.785156 -7.851562 L 9.332031 -0.144531 C 9.359375 -0.0742188 9.503906 0 9.578125 0 L 13.050781 0 C 13.246094 0 13.34375 -0.144531 13.269531 -0.316406 Z M 13.269531 -0.316406 "/></g></g></g><g fill="#ffffff" fill-opacity="1"><g transform="translate(12.000677, 24.849603)"><g><path d="M 9.480469 -13.660156 C 9.480469 -11.519531 6.609375 -11.519531 6.609375 -11.519531 L 3.695312 -11.519531 L 3.695312 -15.96875 L 6.609375 -15.96875 C 6.609375 -15.96875 9.480469 -15.992188 9.480469 -13.660156 Z M 13.199219 -13.878906 C 13.199219 -19.589844 6.609375 -19.445312 6.609375 -19.445312 L 0.265625 -19.445312 C 0.121094 -19.445312 0 -19.324219 0 -19.226562 L 0 -7.898438 L 6.609375 -7.898438 C 6.609375 -7.898438 9.746094 -8.046875 9.746094 -5.761719 C 9.746094 -3.890625 7.828125 -3.546875 6.609375 -3.546875 L 3.71875 -3.546875 L 3.71875 0 L 6.609375 0 C 7.921875 0 13.464844 -0.242188 13.464844 -5.664062 C 13.464844 -5.664062 13.585938 -8.675781 10.5 -9.722656 C 11.984375 -10.328125 13.199219 -11.617188 13.199219 -13.878906 Z M 13.199219 -13.878906 "/></g></g></g></svg>